<svg xmlns="http://www.w3.org/2000/svg" width="32" height="30" viewBox="0 0 32 30">
    <path fill="#EAAB00" fill-rule="nonzero" d="M25.061 29.996c-.186 0-.418-.045-.604-.137l-8.318-4.291a.403.403 0 0 0-.325 0l-8.318 4.291a1.304 1.304 0 0 1-1.58-.32 1.29 1.29 0 0 1-.278-1.004l1.58-9.13c0-.092 0-.23-.093-.32L.387 12.646c-.372-.32-.465-.822-.325-1.278.139-.457.557-.777 1.022-.868l9.293-1.324c.093 0 .233-.091.28-.183l4.181-8.31C15.071.275 15.488 0 16 0c.511 0 .93.274 1.162.685l4.182 8.31c.046.09.14.182.279.182l9.293 1.324c.465.091.883.41 1.022.868.14.456.047.958-.325 1.278L24.83 19.13c-.093.046-.093.183-.093.274l1.58 9.131a1.29 1.29 0 0 1-.279 1.005c-.232.32-.604.456-.976.456zM16 24.551c.185 0 .416.046.602.136l8.283 4.266c.138.09.323.045.416-.091.046-.045.093-.136.093-.272l-1.574-9.076a1.089 1.089 0 0 1 .37-1.089l6.71-6.398c.139-.136.093-.272.093-.363 0-.046-.093-.227-.278-.227L21.46 10.12a1.268 1.268 0 0 1-.971-.68l-4.165-8.26C16.23 1 16.093 1 16 1s-.231 0-.324.182L11.511 9.44a1.268 1.268 0 0 1-.971.681l-9.255 1.316c-.185.045-.278.181-.278.227 0 .045-.046.227.093.363l6.71 6.398c.277.272.416.68.37 1.09L6.606 28.59c0 .136.047.227.093.272a.305.305 0 0 0 .416.09l8.283-4.265c.232-.09.417-.136.602-.136z"/>
</svg>
