<svg xmlns="http://www.w3.org/2000/svg" width="30" height="30" viewBox="0 0 30 30">
    <path fill="#EAAB00" fill-rule="nonzero" d="M23.4 5.81c.57-.612.924-1.445.924-2.363C24.324 1.53 22.794 0 20.94 0c-1.408 0-4.653 2.106-5.951 3.998C13.647 2.106 10.414.061 9.06.061c-1.849 0-3.385 1.53-3.385 3.447 0 .888.33 1.69.863 2.296H0v8.235h1.788V30h26.43V14.045H30V5.81h-6.6zm-2.461-4.53c1.15 0 2.106.955 2.106 2.234 0 1.078-.753 2.002-1.727 2.198h-5.18c-.33-.098-.434-.214-.434-.281 0-1.09 3.827-4.151 5.235-4.151zm-11.878 0c1.341 0 5.235 3.06 5.235 4.15 0 .099-.227.209-.392.282H8.688c-.974-.196-1.727-1.12-1.727-2.198-.006-1.218.955-2.234 2.1-2.234zm2.106 27.44H3.061V14.045h8.106V28.72zm0-15.887H1.28V7.09h9.893v5.743h-.006zm6.38 15.887H12.44V7.084h5.106V28.72zm9.386 0h-8.106V14.045h8.106V28.72zm1.781-15.887h-9.887V7.09h9.893v5.743h-.006z"/>
</svg>
