<svg xmlns="http://www.w3.org/2000/svg" width="14" height="14" viewBox="0 0 14 14">
    <path fill="#003946" fill-rule="evenodd" d="M13.797.868l-.665-.665a.697.697 0 0 0-.985.001l-.73.73H0V14h13.063V2.587l.07-.071.664-.662a.699.699 0 0 0 0-.986zm-9.12 7.706l.75.752-1.033.282.283-1.034zm7.467-5.728l-.989-.99.33-.33.99.99-.331.33zm-.329.33l-5.939 5.94-.988-.99 5.937-5.94.99.99zm.781-.123v10.48H.467V1.399h10.485l-6.56 6.562-.043.044-.496 1.815-.286.286a.234.234 0 0 0 .33.33l.287-.286 1.814-.495 6.25-6.253.348-.349zm.87-1.53l-.661.663-.99-.99.662-.663a.23.23 0 0 1 .324 0l.666.666a.23.23 0 0 1 0 .324z"/>
</svg>
